<mxfile host="app.diagrams.net" agent="Mozilla/5.0 (X11; Linux x86_64) AppleWebKit/537.36 (KHTML, like Gecko) Chrome/137.0.0.0 Safari/537.36" version="27.1.4" pages="5">
  <diagram id="29U3WvX9DhmeGXzBy5_j" name="FLUXO DO USUARIO">
    <mxGraphModel dx="872" dy="431" grid="1" gridSize="10" guides="1" tooltips="1" connect="1" arrows="1" fold="1" page="1" pageScale="1" pageWidth="827" pageHeight="1169" math="0" shadow="0">
      <root>
        <mxCell id="0" />
        <mxCell id="1" parent="0" />
        <mxCell id="bi5S9vFVLuCkgshDZ1-9-1" value="&lt;div&gt;&lt;br&gt;&lt;/div&gt;" style="ellipse;whiteSpace=wrap;html=1;" vertex="1" parent="1">
          <mxGeometry x="340" y="30" width="90" height="50" as="geometry" />
        </mxCell>
        <mxCell id="bi5S9vFVLuCkgshDZ1-9-4" value="/start" style="html=1;strokeWidth=2;shape=manualInput;whiteSpace=wrap;rounded=1;size=26;arcSize=11;" vertex="1" parent="1">
          <mxGeometry x="335" y="90" width="100" height="60" as="geometry" />
        </mxCell>
        <mxCell id="bi5S9vFVLuCkgshDZ1-9-9" value="" style="edgeStyle=orthogonalEdgeStyle;rounded=0;orthogonalLoop=1;jettySize=auto;html=1;" edge="1" parent="1" source="bi5S9vFVLuCkgshDZ1-9-7">
          <mxGeometry relative="1" as="geometry">
            <mxPoint x="265" y="210" as="targetPoint" />
          </mxGeometry>
        </mxCell>
        <mxCell id="bi5S9vFVLuCkgshDZ1-9-11" style="edgeStyle=orthogonalEdgeStyle;rounded=0;orthogonalLoop=1;jettySize=auto;html=1;entryX=0.5;entryY=0;entryDx=0;entryDy=0;" edge="1" parent="1" source="bi5S9vFVLuCkgshDZ1-9-7">
          <mxGeometry relative="1" as="geometry">
            <mxPoint x="385" y="280" as="targetPoint" />
          </mxGeometry>
        </mxCell>
        <mxCell id="bi5S9vFVLuCkgshDZ1-9-7" value="id valido" style="strokeWidth=2;html=1;shape=mxgraph.flowchart.decision;whiteSpace=wrap;" vertex="1" parent="1">
          <mxGeometry x="335" y="180" width="100" height="60" as="geometry" />
        </mxCell>
        <mxCell id="bi5S9vFVLuCkgshDZ1-9-10" value="NÂO" style="text;html=1;align=center;verticalAlign=middle;resizable=0;points=[];autosize=1;strokeColor=none;fillColor=none;" vertex="1" parent="1">
          <mxGeometry x="280" y="180" width="50" height="30" as="geometry" />
        </mxCell>
        <mxCell id="bi5S9vFVLuCkgshDZ1-9-13" style="edgeStyle=orthogonalEdgeStyle;rounded=0;orthogonalLoop=1;jettySize=auto;html=1;entryX=0;entryY=0.5;entryDx=0;entryDy=0;exitX=0;exitY=0.5;exitDx=0;exitDy=0;exitPerimeter=0;" edge="1" parent="1" source="bi5S9vFVLuCkgshDZ1-9-28" target="bi5S9vFVLuCkgshDZ1-9-1">
          <mxGeometry relative="1" as="geometry">
            <mxPoint x="154.95000000000005" y="215" as="sourcePoint" />
            <Array as="points">
              <mxPoint x="170" y="215" />
              <mxPoint x="120" y="215" />
              <mxPoint x="120" y="55" />
            </Array>
          </mxGeometry>
        </mxCell>
        <mxCell id="bi5S9vFVLuCkgshDZ1-9-14" style="edgeStyle=orthogonalEdgeStyle;rounded=0;orthogonalLoop=1;jettySize=auto;html=1;exitX=0.5;exitY=1;exitDx=0;exitDy=0;entryX=0.5;entryY=0.167;entryDx=0;entryDy=0;entryPerimeter=0;" edge="1" parent="1" source="bi5S9vFVLuCkgshDZ1-9-1" target="bi5S9vFVLuCkgshDZ1-9-4">
          <mxGeometry relative="1" as="geometry" />
        </mxCell>
        <mxCell id="bi5S9vFVLuCkgshDZ1-9-15" style="edgeStyle=orthogonalEdgeStyle;rounded=0;orthogonalLoop=1;jettySize=auto;html=1;entryX=0.5;entryY=0;entryDx=0;entryDy=0;entryPerimeter=0;" edge="1" parent="1" source="bi5S9vFVLuCkgshDZ1-9-4" target="bi5S9vFVLuCkgshDZ1-9-7">
          <mxGeometry relative="1" as="geometry" />
        </mxCell>
        <mxCell id="bi5S9vFVLuCkgshDZ1-9-19" style="edgeStyle=orthogonalEdgeStyle;rounded=0;orthogonalLoop=1;jettySize=auto;html=1;" edge="1" parent="1" source="bi5S9vFVLuCkgshDZ1-9-16" target="bi5S9vFVLuCkgshDZ1-9-18">
          <mxGeometry relative="1" as="geometry" />
        </mxCell>
        <mxCell id="bi5S9vFVLuCkgshDZ1-9-16" value="{pin}" style="html=1;strokeWidth=2;shape=manualInput;whiteSpace=wrap;rounded=1;size=26;arcSize=11;" vertex="1" parent="1">
          <mxGeometry x="330" y="380" width="100" height="60" as="geometry" />
        </mxCell>
        <mxCell id="bi5S9vFVLuCkgshDZ1-9-17" style="edgeStyle=orthogonalEdgeStyle;rounded=0;orthogonalLoop=1;jettySize=auto;html=1;entryX=0.67;entryY=0.083;entryDx=0;entryDy=0;entryPerimeter=0;" edge="1" parent="1" target="bi5S9vFVLuCkgshDZ1-9-16">
          <mxGeometry relative="1" as="geometry">
            <mxPoint x="385" y="330" as="sourcePoint" />
          </mxGeometry>
        </mxCell>
        <mxCell id="bi5S9vFVLuCkgshDZ1-9-23" style="edgeStyle=orthogonalEdgeStyle;rounded=0;orthogonalLoop=1;jettySize=auto;html=1;entryX=1;entryY=0.5;entryDx=0;entryDy=0;" edge="1" parent="1" source="bi5S9vFVLuCkgshDZ1-9-18">
          <mxGeometry relative="1" as="geometry">
            <mxPoint x="232.75" y="520" as="targetPoint" />
          </mxGeometry>
        </mxCell>
        <mxCell id="bi5S9vFVLuCkgshDZ1-9-36" style="edgeStyle=orthogonalEdgeStyle;rounded=0;orthogonalLoop=1;jettySize=auto;html=1;" edge="1" parent="1" source="bi5S9vFVLuCkgshDZ1-9-18" target="bi5S9vFVLuCkgshDZ1-9-35">
          <mxGeometry relative="1" as="geometry" />
        </mxCell>
        <mxCell id="bi5S9vFVLuCkgshDZ1-9-18" value="pin valido" style="strokeWidth=2;html=1;shape=mxgraph.flowchart.decision;whiteSpace=wrap;" vertex="1" parent="1">
          <mxGeometry x="330" y="490" width="100" height="60" as="geometry" />
        </mxCell>
        <mxCell id="bi5S9vFVLuCkgshDZ1-9-25" style="edgeStyle=orthogonalEdgeStyle;rounded=0;orthogonalLoop=1;jettySize=auto;html=1;entryX=0;entryY=0.75;entryDx=0;entryDy=0;" edge="1" parent="1" target="bi5S9vFVLuCkgshDZ1-9-16">
          <mxGeometry relative="1" as="geometry">
            <mxPoint x="180" y="495" as="sourcePoint" />
            <Array as="points">
              <mxPoint x="180" y="425" />
            </Array>
          </mxGeometry>
        </mxCell>
        <mxCell id="bi5S9vFVLuCkgshDZ1-9-24" value="Não" style="text;html=1;align=center;verticalAlign=middle;resizable=0;points=[];autosize=1;strokeColor=none;fillColor=none;" vertex="1" parent="1">
          <mxGeometry x="275" y="478" width="50" height="30" as="geometry" />
        </mxCell>
        <mxCell id="bi5S9vFVLuCkgshDZ1-9-27" value="DIGITE SEU PIN" style="strokeWidth=2;html=1;shape=mxgraph.flowchart.display;whiteSpace=wrap;" vertex="1" parent="1">
          <mxGeometry x="330" y="280" width="100" height="60" as="geometry" />
        </mxCell>
        <mxCell id="bi5S9vFVLuCkgshDZ1-9-28" value="ACESSO NEGADO" style="strokeWidth=2;html=1;shape=mxgraph.flowchart.display;whiteSpace=wrap;" vertex="1" parent="1">
          <mxGeometry x="170" y="180" width="100" height="60" as="geometry" />
        </mxCell>
        <mxCell id="bi5S9vFVLuCkgshDZ1-9-31" value="SIM" style="text;html=1;align=center;verticalAlign=middle;resizable=0;points=[];autosize=1;strokeColor=none;fillColor=none;" vertex="1" parent="1">
          <mxGeometry x="380" y="248" width="40" height="30" as="geometry" />
        </mxCell>
        <mxCell id="bi5S9vFVLuCkgshDZ1-9-33" value="DIGITE UM PIN VALIDO" style="strokeWidth=2;html=1;shape=mxgraph.flowchart.display;whiteSpace=wrap;" vertex="1" parent="1">
          <mxGeometry x="150" y="490" width="100" height="60" as="geometry" />
        </mxCell>
        <mxCell id="bi5S9vFVLuCkgshDZ1-9-34" value="{senha}" style="html=1;strokeWidth=2;shape=manualInput;whiteSpace=wrap;rounded=1;size=26;arcSize=11;" vertex="1" parent="1">
          <mxGeometry x="330" y="700" width="100" height="60" as="geometry" />
        </mxCell>
        <mxCell id="bi5S9vFVLuCkgshDZ1-9-35" value="DIGITE SUA SENHA" style="strokeWidth=2;html=1;shape=mxgraph.flowchart.display;whiteSpace=wrap;" vertex="1" parent="1">
          <mxGeometry x="330" y="590" width="100" height="60" as="geometry" />
        </mxCell>
        <mxCell id="bi5S9vFVLuCkgshDZ1-9-37" style="edgeStyle=orthogonalEdgeStyle;rounded=0;orthogonalLoop=1;jettySize=auto;html=1;entryX=0.48;entryY=0.233;entryDx=0;entryDy=0;entryPerimeter=0;" edge="1" parent="1" source="bi5S9vFVLuCkgshDZ1-9-35" target="bi5S9vFVLuCkgshDZ1-9-34">
          <mxGeometry relative="1" as="geometry" />
        </mxCell>
        <mxCell id="bi5S9vFVLuCkgshDZ1-9-40" value="DIGITE O COMANDO GOOGLE" style="strokeWidth=2;html=1;shape=mxgraph.flowchart.display;whiteSpace=wrap;" vertex="1" parent="1">
          <mxGeometry x="330" y="830" width="100" height="60" as="geometry" />
        </mxCell>
        <mxCell id="bi5S9vFVLuCkgshDZ1-9-41" style="edgeStyle=orthogonalEdgeStyle;rounded=0;orthogonalLoop=1;jettySize=auto;html=1;entryX=0.5;entryY=0;entryDx=0;entryDy=0;entryPerimeter=0;" edge="1" parent="1" source="bi5S9vFVLuCkgshDZ1-9-34" target="bi5S9vFVLuCkgshDZ1-9-40">
          <mxGeometry relative="1" as="geometry" />
        </mxCell>
        <mxCell id="bi5S9vFVLuCkgshDZ1-9-54" value="" style="edgeStyle=orthogonalEdgeStyle;rounded=0;orthogonalLoop=1;jettySize=auto;html=1;entryX=0.5;entryY=0;entryDx=0;entryDy=0;entryPerimeter=0;" edge="1" parent="1" source="bi5S9vFVLuCkgshDZ1-9-42" target="bi5S9vFVLuCkgshDZ1-9-56">
          <mxGeometry relative="1" as="geometry">
            <mxPoint x="387.5" y="1220" as="targetPoint" />
          </mxGeometry>
        </mxCell>
        <mxCell id="bi5S9vFVLuCkgshDZ1-9-42" value="Comando valido" style="strokeWidth=2;html=1;shape=mxgraph.flowchart.decision;whiteSpace=wrap;" vertex="1" parent="1">
          <mxGeometry x="345" y="1080" width="85" height="70" as="geometry" />
        </mxCell>
        <mxCell id="bi5S9vFVLuCkgshDZ1-9-44" value="{comando google}" style="html=1;strokeWidth=2;shape=manualInput;whiteSpace=wrap;rounded=1;size=26;arcSize=11;" vertex="1" parent="1">
          <mxGeometry x="340" y="950" width="100" height="60" as="geometry" />
        </mxCell>
        <mxCell id="bi5S9vFVLuCkgshDZ1-9-45" style="edgeStyle=orthogonalEdgeStyle;rounded=0;orthogonalLoop=1;jettySize=auto;html=1;entryX=0.37;entryY=0.25;entryDx=0;entryDy=0;entryPerimeter=0;" edge="1" parent="1" source="bi5S9vFVLuCkgshDZ1-9-40" target="bi5S9vFVLuCkgshDZ1-9-44">
          <mxGeometry relative="1" as="geometry" />
        </mxCell>
        <mxCell id="bi5S9vFVLuCkgshDZ1-9-46" style="edgeStyle=orthogonalEdgeStyle;rounded=0;orthogonalLoop=1;jettySize=auto;html=1;entryX=0.5;entryY=0;entryDx=0;entryDy=0;entryPerimeter=0;" edge="1" parent="1" source="bi5S9vFVLuCkgshDZ1-9-44" target="bi5S9vFVLuCkgshDZ1-9-42">
          <mxGeometry relative="1" as="geometry" />
        </mxCell>
        <mxCell id="bi5S9vFVLuCkgshDZ1-9-49" value="Não" style="text;html=1;align=center;verticalAlign=middle;resizable=0;points=[];autosize=1;strokeColor=none;fillColor=none;" vertex="1" parent="1">
          <mxGeometry x="295" y="1065" width="50" height="30" as="geometry" />
        </mxCell>
        <mxCell id="bi5S9vFVLuCkgshDZ1-9-52" style="edgeStyle=orthogonalEdgeStyle;rounded=0;orthogonalLoop=1;jettySize=auto;html=1;entryX=0;entryY=0.5;entryDx=0;entryDy=0;" edge="1" parent="1" source="bi5S9vFVLuCkgshDZ1-9-50" target="bi5S9vFVLuCkgshDZ1-9-44">
          <mxGeometry relative="1" as="geometry">
            <Array as="points">
              <mxPoint x="120" y="1115" />
              <mxPoint x="120" y="980" />
            </Array>
          </mxGeometry>
        </mxCell>
        <mxCell id="bi5S9vFVLuCkgshDZ1-9-50" value="COMANDO INVALIDO" style="strokeWidth=2;html=1;shape=mxgraph.flowchart.display;whiteSpace=wrap;" vertex="1" parent="1">
          <mxGeometry x="155" y="1095" width="95" height="40" as="geometry" />
        </mxCell>
        <mxCell id="bi5S9vFVLuCkgshDZ1-9-51" style="edgeStyle=orthogonalEdgeStyle;rounded=0;orthogonalLoop=1;jettySize=auto;html=1;entryX=1;entryY=0.5;entryDx=0;entryDy=0;entryPerimeter=0;" edge="1" parent="1" source="bi5S9vFVLuCkgshDZ1-9-42" target="bi5S9vFVLuCkgshDZ1-9-50">
          <mxGeometry relative="1" as="geometry" />
        </mxCell>
        <mxCell id="bi5S9vFVLuCkgshDZ1-9-59" value="" style="edgeStyle=orthogonalEdgeStyle;rounded=0;orthogonalLoop=1;jettySize=auto;html=1;" edge="1" parent="1" source="bi5S9vFVLuCkgshDZ1-9-55" target="bi5S9vFVLuCkgshDZ1-9-58">
          <mxGeometry relative="1" as="geometry" />
        </mxCell>
        <mxCell id="bi5S9vFVLuCkgshDZ1-9-55" value="REALIZA O COMANDO" style="rounded=1;whiteSpace=wrap;html=1;absoluteArcSize=1;arcSize=14;strokeWidth=2;" vertex="1" parent="1">
          <mxGeometry x="335" y="1380" width="105" height="60" as="geometry" />
        </mxCell>
        <mxCell id="bi5S9vFVLuCkgshDZ1-9-57" style="edgeStyle=orthogonalEdgeStyle;rounded=0;orthogonalLoop=1;jettySize=auto;html=1;entryX=0.5;entryY=0;entryDx=0;entryDy=0;" edge="1" parent="1" source="bi5S9vFVLuCkgshDZ1-9-56" target="bi5S9vFVLuCkgshDZ1-9-55">
          <mxGeometry relative="1" as="geometry" />
        </mxCell>
        <mxCell id="bi5S9vFVLuCkgshDZ1-9-56" value="INICIANDO COMANDO" style="strokeWidth=2;html=1;shape=mxgraph.flowchart.display;whiteSpace=wrap;" vertex="1" parent="1">
          <mxGeometry x="337.5" y="1240" width="100" height="60" as="geometry" />
        </mxCell>
        <mxCell id="bi5S9vFVLuCkgshDZ1-9-58" value="SUCESSO" style="rhombus;whiteSpace=wrap;html=1;rounded=1;absoluteArcSize=1;arcSize=14;strokeWidth=2;" vertex="1" parent="1">
          <mxGeometry x="347.5" y="1510" width="80" height="80" as="geometry" />
        </mxCell>
        <mxCell id="bi5S9vFVLuCkgshDZ1-9-63" value="" style="edgeStyle=orthogonalEdgeStyle;rounded=0;orthogonalLoop=1;jettySize=auto;html=1;entryX=0.44;entryY=0.014;entryDx=0;entryDy=0;entryPerimeter=0;" edge="1" parent="1" source="bi5S9vFVLuCkgshDZ1-9-60" target="bi5S9vFVLuCkgshDZ1-9-64">
          <mxGeometry relative="1" as="geometry">
            <mxPoint x="385" y="1810" as="targetPoint" />
          </mxGeometry>
        </mxCell>
        <mxCell id="bi5S9vFVLuCkgshDZ1-9-60" value="COMANDO REALIZADO COM SUCESSO" style="strokeWidth=2;html=1;shape=mxgraph.flowchart.display;whiteSpace=wrap;" vertex="1" parent="1">
          <mxGeometry x="335" y="1670" width="100" height="60" as="geometry" />
        </mxCell>
        <mxCell id="bi5S9vFVLuCkgshDZ1-9-61" style="edgeStyle=orthogonalEdgeStyle;rounded=0;orthogonalLoop=1;jettySize=auto;html=1;entryX=0.5;entryY=0;entryDx=0;entryDy=0;entryPerimeter=0;" edge="1" parent="1" source="bi5S9vFVLuCkgshDZ1-9-58" target="bi5S9vFVLuCkgshDZ1-9-60">
          <mxGeometry relative="1" as="geometry" />
        </mxCell>
        <mxCell id="bi5S9vFVLuCkgshDZ1-9-64" value="Encerra Seção" style="rounded=1;whiteSpace=wrap;html=1;absoluteArcSize=1;arcSize=14;strokeWidth=2;" vertex="1" parent="1">
          <mxGeometry x="340" y="1870" width="100" height="70" as="geometry" />
        </mxCell>
        <mxCell id="bi5S9vFVLuCkgshDZ1-9-66" value="" style="strokeWidth=2;html=1;shape=mxgraph.flowchart.terminator;whiteSpace=wrap;" vertex="1" parent="1">
          <mxGeometry x="345" y="2020" width="100" height="60" as="geometry" />
        </mxCell>
        <mxCell id="bi5S9vFVLuCkgshDZ1-9-67" style="edgeStyle=orthogonalEdgeStyle;rounded=0;orthogonalLoop=1;jettySize=auto;html=1;entryX=0.44;entryY=0.083;entryDx=0;entryDy=0;entryPerimeter=0;" edge="1" parent="1" source="bi5S9vFVLuCkgshDZ1-9-64" target="bi5S9vFVLuCkgshDZ1-9-66">
          <mxGeometry relative="1" as="geometry" />
        </mxCell>
        <mxCell id="bi5S9vFVLuCkgshDZ1-9-68" value="SIM" style="text;html=1;align=center;verticalAlign=middle;resizable=0;points=[];autosize=1;strokeColor=none;fillColor=none;" vertex="1" parent="1">
          <mxGeometry x="400" y="1158" width="40" height="30" as="geometry" />
        </mxCell>
        <mxCell id="bi5S9vFVLuCkgshDZ1-9-71" style="edgeStyle=orthogonalEdgeStyle;rounded=0;orthogonalLoop=1;jettySize=auto;html=1;" edge="1" parent="1" source="bi5S9vFVLuCkgshDZ1-9-69" target="bi5S9vFVLuCkgshDZ1-9-27">
          <mxGeometry relative="1" as="geometry">
            <Array as="points">
              <mxPoint x="60" y="1550" />
              <mxPoint x="60" y="310" />
            </Array>
          </mxGeometry>
        </mxCell>
        <mxCell id="bi5S9vFVLuCkgshDZ1-9-69" value="COMANDO REALIZADO COM ERROS" style="strokeWidth=2;html=1;shape=mxgraph.flowchart.display;whiteSpace=wrap;" vertex="1" parent="1">
          <mxGeometry x="170" y="1520" width="100" height="60" as="geometry" />
        </mxCell>
        <mxCell id="bi5S9vFVLuCkgshDZ1-9-70" style="edgeStyle=orthogonalEdgeStyle;rounded=0;orthogonalLoop=1;jettySize=auto;html=1;entryX=1;entryY=0.5;entryDx=0;entryDy=0;entryPerimeter=0;" edge="1" parent="1" source="bi5S9vFVLuCkgshDZ1-9-58" target="bi5S9vFVLuCkgshDZ1-9-69">
          <mxGeometry relative="1" as="geometry" />
        </mxCell>
        <mxCell id="bi5S9vFVLuCkgshDZ1-9-72" value="NÂO" style="text;html=1;align=center;verticalAlign=middle;resizable=0;points=[];autosize=1;strokeColor=none;fillColor=none;" vertex="1" parent="1">
          <mxGeometry x="285" y="1518" width="50" height="30" as="geometry" />
        </mxCell>
        <mxCell id="bi5S9vFVLuCkgshDZ1-9-73" value="SIM" style="text;html=1;align=center;verticalAlign=middle;resizable=0;points=[];autosize=1;strokeColor=none;fillColor=none;" vertex="1" parent="1">
          <mxGeometry x="390" y="1598" width="40" height="30" as="geometry" />
        </mxCell>
        <mxCell id="YcS8iNEbW2koal-jQTwE-5" style="edgeStyle=orthogonalEdgeStyle;rounded=0;orthogonalLoop=1;jettySize=auto;html=1;" edge="1" parent="1" source="YcS8iNEbW2koal-jQTwE-1" target="YcS8iNEbW2koal-jQTwE-2">
          <mxGeometry relative="1" as="geometry" />
        </mxCell>
        <mxCell id="YcS8iNEbW2koal-jQTwE-1" value="&lt;div&gt;&lt;br&gt;&lt;/div&gt;" style="ellipse;whiteSpace=wrap;html=1;" vertex="1" parent="1">
          <mxGeometry x="680" y="40" width="90" height="50" as="geometry" />
        </mxCell>
        <mxCell id="QKy6-jJErVQXofTX1Wv3-4" value="" style="edgeStyle=orthogonalEdgeStyle;rounded=0;orthogonalLoop=1;jettySize=auto;html=1;" edge="1" parent="1" source="YcS8iNEbW2koal-jQTwE-2" target="QKy6-jJErVQXofTX1Wv3-3">
          <mxGeometry relative="1" as="geometry" />
        </mxCell>
        <mxCell id="YcS8iNEbW2koal-jQTwE-2" value="/cancelar" style="html=1;strokeWidth=2;shape=manualInput;whiteSpace=wrap;rounded=1;size=26;arcSize=11;" vertex="1" parent="1">
          <mxGeometry x="675" y="160" width="100" height="60" as="geometry" />
        </mxCell>
        <mxCell id="YcS8iNEbW2koal-jQTwE-4" style="edgeStyle=orthogonalEdgeStyle;rounded=0;orthogonalLoop=1;jettySize=auto;html=1;entryX=0;entryY=0.5;entryDx=0;entryDy=0;" edge="1" parent="1" source="YcS8iNEbW2koal-jQTwE-3" target="YcS8iNEbW2koal-jQTwE-1">
          <mxGeometry relative="1" as="geometry">
            <Array as="points">
              <mxPoint x="620" y="610" />
              <mxPoint x="620" y="65" />
            </Array>
          </mxGeometry>
        </mxCell>
        <mxCell id="YcS8iNEbW2koal-jQTwE-3" value="resetar sistema" style="rounded=1;whiteSpace=wrap;html=1;absoluteArcSize=1;arcSize=14;strokeWidth=2;" vertex="1" parent="1">
          <mxGeometry x="655" y="585" width="90" height="60" as="geometry" />
        </mxCell>
        <mxCell id="lWcA2zJVP4SRqHO031X6-1" value="&lt;div&gt;&lt;br&gt;&lt;/div&gt;" style="ellipse;whiteSpace=wrap;html=1;" vertex="1" parent="1">
          <mxGeometry x="1141" y="80" width="90" height="50" as="geometry" />
        </mxCell>
        <mxCell id="lWcA2zJVP4SRqHO031X6-7" style="edgeStyle=orthogonalEdgeStyle;rounded=0;orthogonalLoop=1;jettySize=auto;html=1;" edge="1" parent="1" source="lWcA2zJVP4SRqHO031X6-2" target="lWcA2zJVP4SRqHO031X6-4">
          <mxGeometry relative="1" as="geometry" />
        </mxCell>
        <mxCell id="lWcA2zJVP4SRqHO031X6-2" value="/help" style="html=1;strokeWidth=2;shape=manualInput;whiteSpace=wrap;rounded=1;size=26;arcSize=11;" vertex="1" parent="1">
          <mxGeometry x="1141" y="190" width="100" height="60" as="geometry" />
        </mxCell>
        <mxCell id="lWcA2zJVP4SRqHO031X6-4" value="{mensagem help}" style="strokeWidth=2;html=1;shape=mxgraph.flowchart.display;whiteSpace=wrap;" vertex="1" parent="1">
          <mxGeometry x="1141" y="330" width="100" height="60" as="geometry" />
        </mxCell>
        <mxCell id="lWcA2zJVP4SRqHO031X6-5" style="edgeStyle=orthogonalEdgeStyle;rounded=0;orthogonalLoop=1;jettySize=auto;html=1;entryX=0.044;entryY=0.66;entryDx=0;entryDy=0;entryPerimeter=0;" edge="1" parent="1" source="lWcA2zJVP4SRqHO031X6-4">
          <mxGeometry relative="1" as="geometry">
            <mxPoint x="1149.96" y="113" as="targetPoint" />
            <Array as="points">
              <mxPoint x="1096" y="360" />
              <mxPoint x="1096" y="113" />
            </Array>
          </mxGeometry>
        </mxCell>
        <mxCell id="lWcA2zJVP4SRqHO031X6-6" style="edgeStyle=orthogonalEdgeStyle;rounded=0;orthogonalLoop=1;jettySize=auto;html=1;entryX=0.5;entryY=0.167;entryDx=0;entryDy=0;entryPerimeter=0;" edge="1" parent="1" target="lWcA2zJVP4SRqHO031X6-2">
          <mxGeometry relative="1" as="geometry">
            <mxPoint x="1191" y="130" as="sourcePoint" />
          </mxGeometry>
        </mxCell>
        <mxCell id="QKy6-jJErVQXofTX1Wv3-2" style="edgeStyle=orthogonalEdgeStyle;rounded=0;orthogonalLoop=1;jettySize=auto;html=1;entryX=0.5;entryY=0;entryDx=0;entryDy=0;" edge="1" parent="1" source="ICnzvQ7_N_YhCD3PeE7l-1" target="YcS8iNEbW2koal-jQTwE-3">
          <mxGeometry relative="1" as="geometry" />
        </mxCell>
        <mxCell id="ICnzvQ7_N_YhCD3PeE7l-1" value="Cancelado" style="strokeWidth=2;html=1;shape=mxgraph.flowchart.display;whiteSpace=wrap;" vertex="1" parent="1">
          <mxGeometry x="655" y="470" width="100" height="60" as="geometry" />
        </mxCell>
        <mxCell id="QKy6-jJErVQXofTX1Wv3-3" value="comando iniciado ?" style="rhombus;whiteSpace=wrap;html=1;strokeWidth=2;rounded=1;arcSize=11;" vertex="1" parent="1">
          <mxGeometry x="685" y="350" width="80" height="80" as="geometry" />
        </mxCell>
        <mxCell id="QKy6-jJErVQXofTX1Wv3-5" style="edgeStyle=orthogonalEdgeStyle;rounded=0;orthogonalLoop=1;jettySize=auto;html=1;entryX=0.66;entryY=0.017;entryDx=0;entryDy=0;entryPerimeter=0;" edge="1" parent="1" source="QKy6-jJErVQXofTX1Wv3-3" target="ICnzvQ7_N_YhCD3PeE7l-1">
          <mxGeometry relative="1" as="geometry" />
        </mxCell>
        <mxCell id="QKy6-jJErVQXofTX1Wv3-6" value="Não" style="text;html=1;align=center;verticalAlign=middle;resizable=0;points=[];autosize=1;strokeColor=none;fillColor=none;" vertex="1" parent="1">
          <mxGeometry x="715" y="428" width="50" height="30" as="geometry" />
        </mxCell>
        <mxCell id="-UwL9lGSQ2LIv_OyNzvv-4" style="edgeStyle=orthogonalEdgeStyle;rounded=0;orthogonalLoop=1;jettySize=auto;html=1;entryX=1;entryY=0.5;entryDx=0;entryDy=0;" edge="1" parent="1" source="-UwL9lGSQ2LIv_OyNzvv-1" target="YcS8iNEbW2koal-jQTwE-1">
          <mxGeometry relative="1" as="geometry">
            <Array as="points">
              <mxPoint x="880" y="65" />
            </Array>
          </mxGeometry>
        </mxCell>
        <mxCell id="-UwL9lGSQ2LIv_OyNzvv-1" value="Comando já iniciado" style="strokeWidth=2;html=1;shape=mxgraph.flowchart.display;whiteSpace=wrap;" vertex="1" parent="1">
          <mxGeometry x="827" y="390" width="100" height="60" as="geometry" />
        </mxCell>
        <mxCell id="-UwL9lGSQ2LIv_OyNzvv-2" style="edgeStyle=orthogonalEdgeStyle;rounded=0;orthogonalLoop=1;jettySize=auto;html=1;entryX=0;entryY=0.5;entryDx=0;entryDy=0;entryPerimeter=0;" edge="1" parent="1" source="QKy6-jJErVQXofTX1Wv3-3" target="-UwL9lGSQ2LIv_OyNzvv-1">
          <mxGeometry relative="1" as="geometry" />
        </mxCell>
        <mxCell id="-UwL9lGSQ2LIv_OyNzvv-3" value="Sim" style="text;html=1;align=center;verticalAlign=middle;resizable=0;points=[];autosize=1;strokeColor=none;fillColor=none;" vertex="1" parent="1">
          <mxGeometry x="770" y="358" width="40" height="30" as="geometry" />
        </mxCell>
      </root>
    </mxGraphModel>
  </diagram>
  <diagram id="fP-pXjO1KXrdYTEemF1U" name="Logica do comando">
    <mxGraphModel dx="806" dy="481" grid="1" gridSize="10" guides="1" tooltips="1" connect="1" arrows="1" fold="1" page="1" pageScale="1" pageWidth="827" pageHeight="1169" math="0" shadow="0">
      <root>
        <mxCell id="0" />
        <mxCell id="1" parent="0" />
        <mxCell id="8vxBQAqaTOZ_CXlt8nnU-2" value="" style="edgeStyle=orthogonalEdgeStyle;rounded=0;orthogonalLoop=1;jettySize=auto;html=1;" parent="1" source="csD69h9TFRmj6-fQ3dlQ-1" edge="1">
          <mxGeometry relative="1" as="geometry">
            <mxPoint x="335" y="110" as="targetPoint" />
          </mxGeometry>
        </mxCell>
        <mxCell id="csD69h9TFRmj6-fQ3dlQ-1" value="" style="ellipse;whiteSpace=wrap;html=1;" parent="1" vertex="1">
          <mxGeometry x="300" y="20" width="70" height="40" as="geometry" />
        </mxCell>
        <mxCell id="ipIe7BeDQp86MFGkuDOL-3" value="" style="edgeStyle=orthogonalEdgeStyle;rounded=0;orthogonalLoop=1;jettySize=auto;html=1;" parent="1" source="ipIe7BeDQp86MFGkuDOL-1" target="ipIe7BeDQp86MFGkuDOL-2" edge="1">
          <mxGeometry relative="1" as="geometry" />
        </mxCell>
        <mxCell id="ipIe7BeDQp86MFGkuDOL-1" value="" style="strokeWidth=2;html=1;shape=mxgraph.flowchart.start_1;whiteSpace=wrap;" parent="1" vertex="1">
          <mxGeometry x="150" y="960" width="90" height="40" as="geometry" />
        </mxCell>
        <mxCell id="ipIe7BeDQp86MFGkuDOL-8" value="" style="edgeStyle=orthogonalEdgeStyle;rounded=0;orthogonalLoop=1;jettySize=auto;html=1;" parent="1" source="ipIe7BeDQp86MFGkuDOL-2" target="ipIe7BeDQp86MFGkuDOL-9" edge="1">
          <mxGeometry relative="1" as="geometry">
            <mxPoint x="195" y="1200" as="targetPoint" />
          </mxGeometry>
        </mxCell>
        <mxCell id="ipIe7BeDQp86MFGkuDOL-2" value="Fila vazia" style="rhombus;whiteSpace=wrap;html=1;strokeWidth=2;" parent="1" vertex="1">
          <mxGeometry x="155" y="1050" width="80" height="80" as="geometry" />
        </mxCell>
        <mxCell id="ipIe7BeDQp86MFGkuDOL-5" style="edgeStyle=orthogonalEdgeStyle;rounded=0;orthogonalLoop=1;jettySize=auto;html=1;entryX=0;entryY=0.5;entryDx=0;entryDy=0;entryPerimeter=0;" parent="1" source="ipIe7BeDQp86MFGkuDOL-2" target="ipIe7BeDQp86MFGkuDOL-1" edge="1">
          <mxGeometry relative="1" as="geometry">
            <Array as="points">
              <mxPoint x="80" y="1090" />
              <mxPoint x="80" y="980" />
            </Array>
          </mxGeometry>
        </mxCell>
        <mxCell id="ipIe7BeDQp86MFGkuDOL-6" value="Sim" style="text;html=1;align=center;verticalAlign=middle;resizable=0;points=[];autosize=1;strokeColor=none;fillColor=none;" parent="1" vertex="1">
          <mxGeometry x="100" y="1060" width="40" height="30" as="geometry" />
        </mxCell>
        <mxCell id="ipIe7BeDQp86MFGkuDOL-11" value="" style="edgeStyle=orthogonalEdgeStyle;rounded=0;orthogonalLoop=1;jettySize=auto;html=1;entryX=0;entryY=0.5;entryDx=0;entryDy=0;entryPerimeter=0;" parent="1" source="ipIe7BeDQp86MFGkuDOL-9" target="yOonztube3y28EwcK8Di-1" edge="1">
          <mxGeometry relative="1" as="geometry">
            <mxPoint x="315" y="1250" as="targetPoint" />
          </mxGeometry>
        </mxCell>
        <mxCell id="ipIe7BeDQp86MFGkuDOL-9" value="mensagem de sucesso ?" style="strokeWidth=2;html=1;shape=mxgraph.flowchart.decision;whiteSpace=wrap;" parent="1" vertex="1">
          <mxGeometry x="145" y="1200" width="100" height="100" as="geometry" />
        </mxCell>
        <mxCell id="PqYSyp32VzmG1ddilRMK-3" value="" style="edgeStyle=orthogonalEdgeStyle;rounded=0;orthogonalLoop=1;jettySize=auto;html=1;" parent="1" source="yOonztube3y28EwcK8Di-1" target="PqYSyp32VzmG1ddilRMK-2" edge="1">
          <mxGeometry relative="1" as="geometry" />
        </mxCell>
        <mxCell id="yOonztube3y28EwcK8Di-1" value="COMANDO REALIZADO COM SUCESSO" style="strokeWidth=2;html=1;shape=mxgraph.flowchart.display;whiteSpace=wrap;" parent="1" vertex="1">
          <mxGeometry x="350" y="1220" width="130" height="60" as="geometry" />
        </mxCell>
        <mxCell id="PqYSyp32VzmG1ddilRMK-1" value="SIM" style="text;html=1;align=center;verticalAlign=middle;resizable=0;points=[];autosize=1;strokeColor=none;fillColor=none;" parent="1" vertex="1">
          <mxGeometry x="270" y="1218" width="40" height="30" as="geometry" />
        </mxCell>
        <mxCell id="PqYSyp32VzmG1ddilRMK-2" value="Encerra a seção" style="whiteSpace=wrap;html=1;strokeWidth=2;" parent="1" vertex="1">
          <mxGeometry x="565" y="1220" width="120" height="60" as="geometry" />
        </mxCell>
        <mxCell id="PqYSyp32VzmG1ddilRMK-4" value="" style="strokeWidth=2;html=1;shape=mxgraph.flowchart.terminator;whiteSpace=wrap;" parent="1" vertex="1">
          <mxGeometry x="750" y="1220" width="100" height="60" as="geometry" />
        </mxCell>
        <mxCell id="PqYSyp32VzmG1ddilRMK-5" style="edgeStyle=orthogonalEdgeStyle;rounded=0;orthogonalLoop=1;jettySize=auto;html=1;entryX=0;entryY=0.5;entryDx=0;entryDy=0;entryPerimeter=0;" parent="1" source="PqYSyp32VzmG1ddilRMK-2" target="PqYSyp32VzmG1ddilRMK-4" edge="1">
          <mxGeometry relative="1" as="geometry" />
        </mxCell>
        <mxCell id="qQxEwqT9YaAoMYEWPN55-4" value="" style="edgeStyle=orthogonalEdgeStyle;rounded=0;orthogonalLoop=1;jettySize=auto;html=1;" parent="1" source="qQxEwqT9YaAoMYEWPN55-1" target="qQxEwqT9YaAoMYEWPN55-3" edge="1">
          <mxGeometry relative="1" as="geometry" />
        </mxCell>
        <mxCell id="qQxEwqT9YaAoMYEWPN55-1" value="COMANDO REALIZADO COM ERROS" style="strokeWidth=2;html=1;shape=mxgraph.flowchart.display;whiteSpace=wrap;" parent="1" vertex="1">
          <mxGeometry x="145" y="1400" width="100" height="60" as="geometry" />
        </mxCell>
        <mxCell id="qQxEwqT9YaAoMYEWPN55-2" style="edgeStyle=orthogonalEdgeStyle;rounded=0;orthogonalLoop=1;jettySize=auto;html=1;entryX=0.5;entryY=0;entryDx=0;entryDy=0;entryPerimeter=0;" parent="1" source="ipIe7BeDQp86MFGkuDOL-9" target="qQxEwqT9YaAoMYEWPN55-1" edge="1">
          <mxGeometry relative="1" as="geometry" />
        </mxCell>
        <mxCell id="qQxEwqT9YaAoMYEWPN55-3" value="muda para estado aguardando pin" style="whiteSpace=wrap;html=1;strokeWidth=2;" parent="1" vertex="1">
          <mxGeometry x="135" y="1510" width="120" height="60" as="geometry" />
        </mxCell>
        <mxCell id="qQxEwqT9YaAoMYEWPN55-5" style="edgeStyle=orthogonalEdgeStyle;rounded=0;orthogonalLoop=1;jettySize=auto;html=1;entryX=0.111;entryY=0.325;entryDx=0;entryDy=0;entryPerimeter=0;" parent="1" source="qQxEwqT9YaAoMYEWPN55-3" target="ipIe7BeDQp86MFGkuDOL-1" edge="1">
          <mxGeometry relative="1" as="geometry">
            <Array as="points">
              <mxPoint x="70" y="1540" />
              <mxPoint x="70" y="973" />
            </Array>
          </mxGeometry>
        </mxCell>
      </root>
    </mxGraphModel>
  </diagram>
  <diagram id="jvuIGF7xB-3AIeAN_2l6" name="LOGICA BOT">
    <mxGraphModel dx="806" dy="481" grid="1" gridSize="10" guides="1" tooltips="1" connect="1" arrows="1" fold="1" page="1" pageScale="1" pageWidth="827" pageHeight="1169" math="0" shadow="0">
      <root>
        <mxCell id="0" />
        <mxCell id="1" parent="0" />
        <mxCell id="iIuVVUjh9BDR6Y3VUzKp-4" value="" style="edgeStyle=orthogonalEdgeStyle;rounded=0;orthogonalLoop=1;jettySize=auto;html=1;" parent="1" source="iIuVVUjh9BDR6Y3VUzKp-2" target="iIuVVUjh9BDR6Y3VUzKp-3" edge="1">
          <mxGeometry relative="1" as="geometry" />
        </mxCell>
        <mxCell id="iIuVVUjh9BDR6Y3VUzKp-2" value="\start" style="html=1;strokeWidth=2;shape=manualInput;whiteSpace=wrap;rounded=1;size=26;arcSize=11;" parent="1" vertex="1">
          <mxGeometry x="130" y="50" width="100" height="60" as="geometry" />
        </mxCell>
        <mxCell id="iIuVVUjh9BDR6Y3VUzKp-6" value="" style="edgeStyle=orthogonalEdgeStyle;rounded=0;orthogonalLoop=1;jettySize=auto;html=1;" parent="1" source="iIuVVUjh9BDR6Y3VUzKp-3" target="iIuVVUjh9BDR6Y3VUzKp-5" edge="1">
          <mxGeometry relative="1" as="geometry" />
        </mxCell>
        <mxCell id="iIuVVUjh9BDR6Y3VUzKp-3" value="id = id_usuario" style="rhombus;whiteSpace=wrap;html=1;strokeWidth=2;rounded=1;arcSize=11;" parent="1" vertex="1">
          <mxGeometry x="140" y="180" width="80" height="80" as="geometry" />
        </mxCell>
        <mxCell id="iIuVVUjh9BDR6Y3VUzKp-5" value="muda o estado para aguardando PIN" style="whiteSpace=wrap;html=1;strokeWidth=2;rounded=1;arcSize=11;" parent="1" vertex="1">
          <mxGeometry x="120" y="310" width="120" height="60" as="geometry" />
        </mxCell>
        <mxCell id="iIuVVUjh9BDR6Y3VUzKp-8" value="" style="strokeWidth=2;html=1;shape=mxgraph.flowchart.terminator;whiteSpace=wrap;" parent="1" vertex="1">
          <mxGeometry x="130" y="520" width="100" height="60" as="geometry" />
        </mxCell>
        <mxCell id="zlSJfoQcLrmOwn1UbfgY-1" value="DIGITE SEU PIN" style="strokeWidth=2;html=1;shape=mxgraph.flowchart.display;whiteSpace=wrap;" parent="1" vertex="1">
          <mxGeometry x="130" y="410" width="100" height="60" as="geometry" />
        </mxCell>
        <mxCell id="zlSJfoQcLrmOwn1UbfgY-2" style="edgeStyle=orthogonalEdgeStyle;rounded=0;orthogonalLoop=1;jettySize=auto;html=1;entryX=0.5;entryY=0;entryDx=0;entryDy=0;entryPerimeter=0;" parent="1" source="zlSJfoQcLrmOwn1UbfgY-1" target="iIuVVUjh9BDR6Y3VUzKp-8" edge="1">
          <mxGeometry relative="1" as="geometry" />
        </mxCell>
        <mxCell id="zlSJfoQcLrmOwn1UbfgY-3" style="edgeStyle=orthogonalEdgeStyle;rounded=0;orthogonalLoop=1;jettySize=auto;html=1;entryX=0.5;entryY=0;entryDx=0;entryDy=0;entryPerimeter=0;" parent="1" source="iIuVVUjh9BDR6Y3VUzKp-5" target="zlSJfoQcLrmOwn1UbfgY-1" edge="1">
          <mxGeometry relative="1" as="geometry" />
        </mxCell>
        <mxCell id="zlSJfoQcLrmOwn1UbfgY-4" value="SIM" style="text;html=1;align=center;verticalAlign=middle;resizable=0;points=[];autosize=1;strokeColor=none;fillColor=none;" parent="1" vertex="1">
          <mxGeometry x="180" y="258" width="40" height="30" as="geometry" />
        </mxCell>
        <mxCell id="_3kQ62X5EKVUiDXvo_V6-1" value="ACESSO NEGADO" style="strokeWidth=2;html=1;shape=mxgraph.flowchart.display;whiteSpace=wrap;" parent="1" vertex="1">
          <mxGeometry x="270" y="190" width="100" height="60" as="geometry" />
        </mxCell>
        <mxCell id="_3kQ62X5EKVUiDXvo_V6-2" style="edgeStyle=orthogonalEdgeStyle;rounded=0;orthogonalLoop=1;jettySize=auto;html=1;entryX=0;entryY=0.5;entryDx=0;entryDy=0;entryPerimeter=0;" parent="1" source="iIuVVUjh9BDR6Y3VUzKp-3" target="_3kQ62X5EKVUiDXvo_V6-1" edge="1">
          <mxGeometry relative="1" as="geometry" />
        </mxCell>
        <mxCell id="_3kQ62X5EKVUiDXvo_V6-3" style="edgeStyle=orthogonalEdgeStyle;rounded=0;orthogonalLoop=1;jettySize=auto;html=1;entryX=0.97;entryY=0.667;entryDx=0;entryDy=0;entryPerimeter=0;" parent="1" source="_3kQ62X5EKVUiDXvo_V6-1" target="iIuVVUjh9BDR6Y3VUzKp-8" edge="1">
          <mxGeometry relative="1" as="geometry">
            <Array as="points">
              <mxPoint x="400" y="220" />
              <mxPoint x="400" y="560" />
            </Array>
          </mxGeometry>
        </mxCell>
        <mxCell id="P2qDN5JJrARhEnIJttX_-5" value="" style="edgeStyle=orthogonalEdgeStyle;rounded=0;orthogonalLoop=1;jettySize=auto;html=1;" parent="1" source="_3kQ62X5EKVUiDXvo_V6-5" target="P2qDN5JJrARhEnIJttX_-4" edge="1">
          <mxGeometry relative="1" as="geometry" />
        </mxCell>
        <mxCell id="_3kQ62X5EKVUiDXvo_V6-5" value="\cancelar" style="html=1;strokeWidth=2;shape=manualInput;whiteSpace=wrap;rounded=1;size=26;arcSize=11;" parent="1" vertex="1">
          <mxGeometry x="90" y="660" width="100" height="60" as="geometry" />
        </mxCell>
        <mxCell id="_3kQ62X5EKVUiDXvo_V6-9" value="" style="strokeWidth=2;html=1;shape=mxgraph.flowchart.terminator;whiteSpace=wrap;" parent="1" vertex="1">
          <mxGeometry x="90" y="1120" width="100" height="60" as="geometry" />
        </mxCell>
        <mxCell id="ybuoQqFkuFWZ2BMzjRzm-1" value="limpar dicionario" style="rounded=1;whiteSpace=wrap;html=1;absoluteArcSize=1;arcSize=14;strokeWidth=2;" parent="1" vertex="1">
          <mxGeometry x="100" y="890" width="80" height="70" as="geometry" />
        </mxCell>
        <mxCell id="ybuoQqFkuFWZ2BMzjRzm-3" value="" style="edgeStyle=orthogonalEdgeStyle;rounded=0;orthogonalLoop=1;jettySize=auto;html=1;entryX=0.5;entryY=0;entryDx=0;entryDy=0;entryPerimeter=0;" parent="1" source="ybuoQqFkuFWZ2BMzjRzm-4" target="kw0NY8Hmx1FnXpT0k7sg-1" edge="1">
          <mxGeometry relative="1" as="geometry">
            <mxPoint x="570" y="795" as="targetPoint" />
          </mxGeometry>
        </mxCell>
        <mxCell id="ybuoQqFkuFWZ2BMzjRzm-4" value="\help" style="html=1;strokeWidth=2;shape=manualInput;whiteSpace=wrap;rounded=1;size=26;arcSize=11;" parent="1" vertex="1">
          <mxGeometry x="520" y="665" width="100" height="60" as="geometry" />
        </mxCell>
        <mxCell id="ybuoQqFkuFWZ2BMzjRzm-5" value="" style="strokeWidth=2;html=1;shape=mxgraph.flowchart.terminator;whiteSpace=wrap;" parent="1" vertex="1">
          <mxGeometry x="520" y="925" width="100" height="60" as="geometry" />
        </mxCell>
        <mxCell id="ybuoQqFkuFWZ2BMzjRzm-7" style="edgeStyle=orthogonalEdgeStyle;rounded=0;orthogonalLoop=1;jettySize=auto;html=1;entryX=0.5;entryY=0;entryDx=0;entryDy=0;entryPerimeter=0;exitX=0.5;exitY=1;exitDx=0;exitDy=0;exitPerimeter=0;" parent="1" source="kw0NY8Hmx1FnXpT0k7sg-1" target="ybuoQqFkuFWZ2BMzjRzm-5" edge="1">
          <mxGeometry relative="1" as="geometry">
            <mxPoint x="570" y="865" as="sourcePoint" />
          </mxGeometry>
        </mxCell>
        <mxCell id="DvVoKMfZwtF6XkrAKlHS-1" value="Cancelado" style="strokeWidth=2;html=1;shape=mxgraph.flowchart.display;whiteSpace=wrap;" parent="1" vertex="1">
          <mxGeometry x="90" y="1010" width="100" height="60" as="geometry" />
        </mxCell>
        <mxCell id="DvVoKMfZwtF6XkrAKlHS-2" style="edgeStyle=orthogonalEdgeStyle;rounded=0;orthogonalLoop=1;jettySize=auto;html=1;entryX=0.5;entryY=0;entryDx=0;entryDy=0;entryPerimeter=0;" parent="1" source="ybuoQqFkuFWZ2BMzjRzm-1" target="DvVoKMfZwtF6XkrAKlHS-1" edge="1">
          <mxGeometry relative="1" as="geometry" />
        </mxCell>
        <mxCell id="DvVoKMfZwtF6XkrAKlHS-3" style="edgeStyle=orthogonalEdgeStyle;rounded=0;orthogonalLoop=1;jettySize=auto;html=1;entryX=0.5;entryY=0;entryDx=0;entryDy=0;entryPerimeter=0;" parent="1" source="DvVoKMfZwtF6XkrAKlHS-1" target="_3kQ62X5EKVUiDXvo_V6-9" edge="1">
          <mxGeometry relative="1" as="geometry" />
        </mxCell>
        <mxCell id="kw0NY8Hmx1FnXpT0k7sg-1" value="{mensagem help}" style="strokeWidth=2;html=1;shape=mxgraph.flowchart.display;whiteSpace=wrap;" parent="1" vertex="1">
          <mxGeometry x="520" y="800" width="100" height="60" as="geometry" />
        </mxCell>
        <mxCell id="kw0NY8Hmx1FnXpT0k7sg-3" value="{comando}" style="html=1;strokeWidth=2;shape=manualInput;whiteSpace=wrap;rounded=1;size=26;arcSize=11;" parent="1" vertex="1">
          <mxGeometry x="110" y="1210" width="100" height="60" as="geometry" />
        </mxCell>
        <mxCell id="kw0NY8Hmx1FnXpT0k7sg-4" value="" style="strokeWidth=2;html=1;shape=mxgraph.flowchart.terminator;whiteSpace=wrap;" parent="1" vertex="1">
          <mxGeometry x="970" y="1358" width="100" height="60" as="geometry" />
        </mxCell>
        <mxCell id="kw0NY8Hmx1FnXpT0k7sg-12" value="" style="edgeStyle=orthogonalEdgeStyle;rounded=0;orthogonalLoop=1;jettySize=auto;html=1;" parent="1" source="kw0NY8Hmx1FnXpT0k7sg-9" edge="1">
          <mxGeometry relative="1" as="geometry">
            <mxPoint x="280" y="1385" as="targetPoint" />
          </mxGeometry>
        </mxCell>
        <mxCell id="0wQY3C7YENce3CmRfUxV-9" value="" style="edgeStyle=orthogonalEdgeStyle;rounded=0;orthogonalLoop=1;jettySize=auto;html=1;" parent="1" source="kw0NY8Hmx1FnXpT0k7sg-9" target="0wQY3C7YENce3CmRfUxV-8" edge="1">
          <mxGeometry relative="1" as="geometry" />
        </mxCell>
        <mxCell id="kw0NY8Hmx1FnXpT0k7sg-9" value="estado = aguardando pin" style="strokeWidth=2;html=1;shape=mxgraph.flowchart.decision;whiteSpace=wrap;" parent="1" vertex="1">
          <mxGeometry x="110" y="1340" width="100" height="90" as="geometry" />
        </mxCell>
        <mxCell id="kw0NY8Hmx1FnXpT0k7sg-10" style="edgeStyle=orthogonalEdgeStyle;rounded=0;orthogonalLoop=1;jettySize=auto;html=1;entryX=0.5;entryY=0;entryDx=0;entryDy=0;entryPerimeter=0;" parent="1" source="kw0NY8Hmx1FnXpT0k7sg-3" target="kw0NY8Hmx1FnXpT0k7sg-9" edge="1">
          <mxGeometry relative="1" as="geometry" />
        </mxCell>
        <mxCell id="kw0NY8Hmx1FnXpT0k7sg-13" value="SIM" style="text;html=1;align=center;verticalAlign=middle;resizable=0;points=[];autosize=1;strokeColor=none;fillColor=none;" parent="1" vertex="1">
          <mxGeometry x="230" y="1358" width="40" height="30" as="geometry" />
        </mxCell>
        <mxCell id="kw0NY8Hmx1FnXpT0k7sg-14" value="Pin valido ?" style="strokeWidth=2;html=1;shape=mxgraph.flowchart.decision;whiteSpace=wrap;" parent="1" vertex="1">
          <mxGeometry x="280" y="1335" width="100" height="100" as="geometry" />
        </mxCell>
        <mxCell id="ikgXzfmqjM2QYvM7nztF-3" value="" style="edgeStyle=orthogonalEdgeStyle;rounded=0;orthogonalLoop=1;jettySize=auto;html=1;" parent="1" source="kw0NY8Hmx1FnXpT0k7sg-17" target="ikgXzfmqjM2QYvM7nztF-2" edge="1">
          <mxGeometry relative="1" as="geometry" />
        </mxCell>
        <mxCell id="kw0NY8Hmx1FnXpT0k7sg-17" value="Salva o pin" style="strokeWidth=2;html=1;shape=mxgraph.flowchart.stored_data;whiteSpace=wrap;" parent="1" vertex="1">
          <mxGeometry x="460" y="1355" width="100" height="60" as="geometry" />
        </mxCell>
        <mxCell id="kw0NY8Hmx1FnXpT0k7sg-18" style="edgeStyle=orthogonalEdgeStyle;rounded=0;orthogonalLoop=1;jettySize=auto;html=1;entryX=0;entryY=0.5;entryDx=0;entryDy=0;entryPerimeter=0;" parent="1" source="kw0NY8Hmx1FnXpT0k7sg-14" target="kw0NY8Hmx1FnXpT0k7sg-17" edge="1">
          <mxGeometry relative="1" as="geometry" />
        </mxCell>
        <mxCell id="kw0NY8Hmx1FnXpT0k7sg-21" style="edgeStyle=orthogonalEdgeStyle;rounded=0;orthogonalLoop=1;jettySize=auto;html=1;entryX=0;entryY=0.5;entryDx=0;entryDy=0;entryPerimeter=0;" parent="1" target="kw0NY8Hmx1FnXpT0k7sg-4" edge="1">
          <mxGeometry relative="1" as="geometry">
            <mxPoint x="890" y="1388" as="sourcePoint" />
          </mxGeometry>
        </mxCell>
        <mxCell id="ikgXzfmqjM2QYvM7nztF-1" value="DIGITE SUA SENHA" style="strokeWidth=2;html=1;shape=mxgraph.flowchart.display;whiteSpace=wrap;" parent="1" vertex="1">
          <mxGeometry x="800" y="1355" width="100" height="60" as="geometry" />
        </mxCell>
        <mxCell id="ikgXzfmqjM2QYvM7nztF-4" style="edgeStyle=orthogonalEdgeStyle;rounded=0;orthogonalLoop=1;jettySize=auto;html=1;" parent="1" source="ikgXzfmqjM2QYvM7nztF-2" target="ikgXzfmqjM2QYvM7nztF-1" edge="1">
          <mxGeometry relative="1" as="geometry" />
        </mxCell>
        <mxCell id="ikgXzfmqjM2QYvM7nztF-2" value="Muda para estado aguardando senha" style="whiteSpace=wrap;html=1;strokeWidth=2;" parent="1" vertex="1">
          <mxGeometry x="630" y="1355" width="120" height="60" as="geometry" />
        </mxCell>
        <mxCell id="0wQY3C7YENce3CmRfUxV-1" value="DIGITE UM PIN VALIDO" style="strokeWidth=2;html=1;shape=mxgraph.flowchart.display;whiteSpace=wrap;" parent="1" vertex="1">
          <mxGeometry x="280" y="1500" width="100" height="60" as="geometry" />
        </mxCell>
        <mxCell id="0wQY3C7YENce3CmRfUxV-2" style="edgeStyle=orthogonalEdgeStyle;rounded=0;orthogonalLoop=1;jettySize=auto;html=1;entryX=0.5;entryY=0;entryDx=0;entryDy=0;entryPerimeter=0;" parent="1" source="kw0NY8Hmx1FnXpT0k7sg-14" target="0wQY3C7YENce3CmRfUxV-1" edge="1">
          <mxGeometry relative="1" as="geometry" />
        </mxCell>
        <mxCell id="0wQY3C7YENce3CmRfUxV-3" value="Não" style="text;html=1;align=center;verticalAlign=middle;resizable=0;points=[];autosize=1;strokeColor=none;fillColor=none;" parent="1" vertex="1">
          <mxGeometry x="335" y="1448" width="50" height="30" as="geometry" />
        </mxCell>
        <mxCell id="0wQY3C7YENce3CmRfUxV-4" value="SIM" style="text;html=1;align=center;verticalAlign=middle;resizable=0;points=[];autosize=1;strokeColor=none;fillColor=none;" parent="1" vertex="1">
          <mxGeometry x="394" y="1355" width="40" height="30" as="geometry" />
        </mxCell>
        <mxCell id="0wQY3C7YENce3CmRfUxV-5" style="edgeStyle=orthogonalEdgeStyle;rounded=0;orthogonalLoop=1;jettySize=auto;html=1;entryX=0.5;entryY=1;entryDx=0;entryDy=0;entryPerimeter=0;" parent="1" source="0wQY3C7YENce3CmRfUxV-1" target="kw0NY8Hmx1FnXpT0k7sg-4" edge="1">
          <mxGeometry relative="1" as="geometry" />
        </mxCell>
        <mxCell id="YfaCrAUt6-OheQRD3BJ8-6" value="" style="edgeStyle=orthogonalEdgeStyle;rounded=0;orthogonalLoop=1;jettySize=auto;html=1;" parent="1" source="0wQY3C7YENce3CmRfUxV-8" target="YfaCrAUt6-OheQRD3BJ8-5" edge="1">
          <mxGeometry relative="1" as="geometry" />
        </mxCell>
        <mxCell id="0wQY3C7YENce3CmRfUxV-8" value="estado = aguardando senha" style="strokeWidth=2;html=1;shape=mxgraph.flowchart.decision;whiteSpace=wrap;" parent="1" vertex="1">
          <mxGeometry x="110" y="1600" width="100" height="90" as="geometry" />
        </mxCell>
        <mxCell id="YfaCrAUt6-OheQRD3BJ8-8" style="edgeStyle=orthogonalEdgeStyle;rounded=0;orthogonalLoop=1;jettySize=auto;html=1;entryX=0;entryY=0.5;entryDx=0;entryDy=0;" parent="1" source="0wQY3C7YENce3CmRfUxV-10" target="YfaCrAUt6-OheQRD3BJ8-7" edge="1">
          <mxGeometry relative="1" as="geometry" />
        </mxCell>
        <mxCell id="0wQY3C7YENce3CmRfUxV-10" value="Salva a senha" style="strokeWidth=2;html=1;shape=mxgraph.flowchart.stored_data;whiteSpace=wrap;" parent="1" vertex="1">
          <mxGeometry x="285" y="1615" width="100" height="60" as="geometry" />
        </mxCell>
        <mxCell id="0wQY3C7YENce3CmRfUxV-11" style="edgeStyle=orthogonalEdgeStyle;rounded=0;orthogonalLoop=1;jettySize=auto;html=1;entryX=0;entryY=0.5;entryDx=0;entryDy=0;entryPerimeter=0;" parent="1" source="0wQY3C7YENce3CmRfUxV-8" target="0wQY3C7YENce3CmRfUxV-10" edge="1">
          <mxGeometry relative="1" as="geometry" />
        </mxCell>
        <mxCell id="YfaCrAUt6-OheQRD3BJ8-1" value="DIGITE O COMANDO GOOGLE" style="strokeWidth=2;html=1;shape=mxgraph.flowchart.display;whiteSpace=wrap;" parent="1" vertex="1">
          <mxGeometry x="610" y="1615" width="100" height="60" as="geometry" />
        </mxCell>
        <mxCell id="YfaCrAUt6-OheQRD3BJ8-3" value="" style="strokeWidth=2;html=1;shape=mxgraph.flowchart.terminator;whiteSpace=wrap;" parent="1" vertex="1">
          <mxGeometry x="800" y="1615" width="100" height="60" as="geometry" />
        </mxCell>
        <mxCell id="YfaCrAUt6-OheQRD3BJ8-4" style="edgeStyle=orthogonalEdgeStyle;rounded=0;orthogonalLoop=1;jettySize=auto;html=1;entryX=0;entryY=0.5;entryDx=0;entryDy=0;entryPerimeter=0;" parent="1" source="YfaCrAUt6-OheQRD3BJ8-1" target="YfaCrAUt6-OheQRD3BJ8-3" edge="1">
          <mxGeometry relative="1" as="geometry" />
        </mxCell>
        <mxCell id="Zs-mGdtHatwChCYpPRgz-7" value="" style="edgeStyle=orthogonalEdgeStyle;rounded=0;orthogonalLoop=1;jettySize=auto;html=1;" parent="1" source="YfaCrAUt6-OheQRD3BJ8-5" target="Zs-mGdtHatwChCYpPRgz-6" edge="1">
          <mxGeometry relative="1" as="geometry" />
        </mxCell>
        <mxCell id="lvihbAzSKuP7IaGvUuyG-1" style="edgeStyle=orthogonalEdgeStyle;rounded=0;orthogonalLoop=1;jettySize=auto;html=1;entryX=0;entryY=0.5;entryDx=0;entryDy=0;" edge="1" parent="1" source="YfaCrAUt6-OheQRD3BJ8-5" target="YfaCrAUt6-OheQRD3BJ8-13">
          <mxGeometry relative="1" as="geometry" />
        </mxCell>
        <mxCell id="YfaCrAUt6-OheQRD3BJ8-5" value="estado = aguardando comando" style="strokeWidth=2;html=1;shape=mxgraph.flowchart.decision;whiteSpace=wrap;" parent="1" vertex="1">
          <mxGeometry x="110" y="1770" width="100" height="90" as="geometry" />
        </mxCell>
        <mxCell id="YfaCrAUt6-OheQRD3BJ8-7" value="Muda para estado aguardando comando&amp;nbsp;" style="whiteSpace=wrap;html=1;strokeWidth=2;" parent="1" vertex="1">
          <mxGeometry x="450" y="1615" width="120" height="60" as="geometry" />
        </mxCell>
        <mxCell id="YfaCrAUt6-OheQRD3BJ8-9" style="edgeStyle=orthogonalEdgeStyle;rounded=0;orthogonalLoop=1;jettySize=auto;html=1;entryX=0;entryY=0.5;entryDx=0;entryDy=0;entryPerimeter=0;" parent="1" source="YfaCrAUt6-OheQRD3BJ8-7" target="YfaCrAUt6-OheQRD3BJ8-1" edge="1">
          <mxGeometry relative="1" as="geometry" />
        </mxCell>
        <mxCell id="YfaCrAUt6-OheQRD3BJ8-16" value="" style="edgeStyle=orthogonalEdgeStyle;rounded=0;orthogonalLoop=1;jettySize=auto;html=1;" parent="1" source="YfaCrAUt6-OheQRD3BJ8-13" target="YfaCrAUt6-OheQRD3BJ8-15" edge="1">
          <mxGeometry relative="1" as="geometry" />
        </mxCell>
        <mxCell id="YfaCrAUt6-OheQRD3BJ8-13" value="inicia o comando" style="whiteSpace=wrap;html=1;strokeWidth=2;" parent="1" vertex="1">
          <mxGeometry x="310" y="1795" width="120" height="60" as="geometry" />
        </mxCell>
        <mxCell id="YfaCrAUt6-OheQRD3BJ8-15" value="muda estado para comando iniciado" style="whiteSpace=wrap;html=1;strokeWidth=2;" parent="1" vertex="1">
          <mxGeometry x="510" y="1795" width="120" height="60" as="geometry" />
        </mxCell>
        <mxCell id="YfaCrAUt6-OheQRD3BJ8-17" value="" style="strokeWidth=2;html=1;shape=mxgraph.flowchart.terminator;whiteSpace=wrap;" parent="1" vertex="1">
          <mxGeometry x="890" y="1800" width="100" height="60" as="geometry" />
        </mxCell>
        <mxCell id="P2qDN5JJrARhEnIJttX_-1" value="INICIANDO COMANDO" style="strokeWidth=2;html=1;shape=mxgraph.flowchart.display;whiteSpace=wrap;" parent="1" vertex="1">
          <mxGeometry x="700" y="1795" width="100" height="60" as="geometry" />
        </mxCell>
        <mxCell id="P2qDN5JJrARhEnIJttX_-2" style="edgeStyle=orthogonalEdgeStyle;rounded=0;orthogonalLoop=1;jettySize=auto;html=1;entryX=0;entryY=0.5;entryDx=0;entryDy=0;entryPerimeter=0;" parent="1" source="YfaCrAUt6-OheQRD3BJ8-15" target="P2qDN5JJrARhEnIJttX_-1" edge="1">
          <mxGeometry relative="1" as="geometry" />
        </mxCell>
        <mxCell id="P2qDN5JJrARhEnIJttX_-3" style="edgeStyle=orthogonalEdgeStyle;rounded=0;orthogonalLoop=1;jettySize=auto;html=1;entryX=0.02;entryY=0.4;entryDx=0;entryDy=0;entryPerimeter=0;" parent="1" source="P2qDN5JJrARhEnIJttX_-1" target="YfaCrAUt6-OheQRD3BJ8-17" edge="1">
          <mxGeometry relative="1" as="geometry" />
        </mxCell>
        <mxCell id="P2qDN5JJrARhEnIJttX_-6" style="edgeStyle=orthogonalEdgeStyle;rounded=0;orthogonalLoop=1;jettySize=auto;html=1;entryX=0.5;entryY=0;entryDx=0;entryDy=0;" parent="1" source="P2qDN5JJrARhEnIJttX_-4" target="ybuoQqFkuFWZ2BMzjRzm-1" edge="1">
          <mxGeometry relative="1" as="geometry" />
        </mxCell>
        <mxCell id="P2qDN5JJrARhEnIJttX_-4" value="estado != comando iniciado&amp;nbsp;" style="rhombus;whiteSpace=wrap;html=1;strokeWidth=2;rounded=1;arcSize=11;" parent="1" vertex="1">
          <mxGeometry x="100" y="780" width="80" height="80" as="geometry" />
        </mxCell>
        <mxCell id="Zs-mGdtHatwChCYpPRgz-1" value="SIM" style="text;html=1;align=center;verticalAlign=middle;resizable=0;points=[];autosize=1;strokeColor=none;fillColor=none;" parent="1" vertex="1">
          <mxGeometry x="140" y="858" width="40" height="30" as="geometry" />
        </mxCell>
        <mxCell id="Zs-mGdtHatwChCYpPRgz-2" value="Comando já iniciado" style="strokeWidth=2;html=1;shape=mxgraph.flowchart.display;whiteSpace=wrap;" parent="1" vertex="1">
          <mxGeometry x="260" y="790" width="100" height="60" as="geometry" />
        </mxCell>
        <mxCell id="Zs-mGdtHatwChCYpPRgz-3" style="edgeStyle=orthogonalEdgeStyle;rounded=0;orthogonalLoop=1;jettySize=auto;html=1;entryX=0;entryY=0.5;entryDx=0;entryDy=0;entryPerimeter=0;" parent="1" source="P2qDN5JJrARhEnIJttX_-4" target="Zs-mGdtHatwChCYpPRgz-2" edge="1">
          <mxGeometry relative="1" as="geometry" />
        </mxCell>
        <mxCell id="Zs-mGdtHatwChCYpPRgz-4" style="edgeStyle=orthogonalEdgeStyle;rounded=0;orthogonalLoop=1;jettySize=auto;html=1;entryX=1;entryY=0.333;entryDx=0;entryDy=0;entryPerimeter=0;" parent="1" source="Zs-mGdtHatwChCYpPRgz-2" target="_3kQ62X5EKVUiDXvo_V6-9" edge="1">
          <mxGeometry relative="1" as="geometry">
            <Array as="points">
              <mxPoint x="310" y="1140" />
            </Array>
          </mxGeometry>
        </mxCell>
        <mxCell id="Zs-mGdtHatwChCYpPRgz-5" value="Não" style="text;html=1;align=center;verticalAlign=middle;resizable=0;points=[];autosize=1;strokeColor=none;fillColor=none;" parent="1" vertex="1">
          <mxGeometry x="185" y="788" width="50" height="30" as="geometry" />
        </mxCell>
        <mxCell id="Zs-mGdtHatwChCYpPRgz-12" value="" style="edgeStyle=orthogonalEdgeStyle;rounded=0;orthogonalLoop=1;jettySize=auto;html=1;" parent="1" source="Zs-mGdtHatwChCYpPRgz-6" target="Zs-mGdtHatwChCYpPRgz-13" edge="1">
          <mxGeometry relative="1" as="geometry">
            <mxPoint x="160" y="2110" as="targetPoint" />
          </mxGeometry>
        </mxCell>
        <mxCell id="Zs-mGdtHatwChCYpPRgz-6" value="estado = comando inciado" style="strokeWidth=2;html=1;shape=mxgraph.flowchart.decision;whiteSpace=wrap;" parent="1" vertex="1">
          <mxGeometry x="110" y="1940" width="100" height="90" as="geometry" />
        </mxCell>
        <mxCell id="Zs-mGdtHatwChCYpPRgz-10" style="edgeStyle=orthogonalEdgeStyle;rounded=0;orthogonalLoop=1;jettySize=auto;html=1;" parent="1" source="Zs-mGdtHatwChCYpPRgz-8" target="YfaCrAUt6-OheQRD3BJ8-17" edge="1">
          <mxGeometry relative="1" as="geometry" />
        </mxCell>
        <mxCell id="Zs-mGdtHatwChCYpPRgz-8" value="Aguarde" style="strokeWidth=2;html=1;shape=mxgraph.flowchart.display;whiteSpace=wrap;" parent="1" vertex="1">
          <mxGeometry x="280" y="1955" width="100" height="60" as="geometry" />
        </mxCell>
        <mxCell id="Zs-mGdtHatwChCYpPRgz-9" style="edgeStyle=orthogonalEdgeStyle;rounded=0;orthogonalLoop=1;jettySize=auto;html=1;entryX=0;entryY=0.5;entryDx=0;entryDy=0;entryPerimeter=0;" parent="1" source="Zs-mGdtHatwChCYpPRgz-6" target="Zs-mGdtHatwChCYpPRgz-8" edge="1">
          <mxGeometry relative="1" as="geometry" />
        </mxCell>
        <mxCell id="Zs-mGdtHatwChCYpPRgz-13" value="" style="strokeWidth=2;html=1;shape=mxgraph.flowchart.terminator;whiteSpace=wrap;" parent="1" vertex="1">
          <mxGeometry x="110" y="2140" width="100" height="60" as="geometry" />
        </mxCell>
        <mxCell id="Zs-mGdtHatwChCYpPRgz-14" value="Não" style="text;html=1;align=center;verticalAlign=middle;resizable=0;points=[];autosize=1;strokeColor=none;fillColor=none;" parent="1" vertex="1">
          <mxGeometry x="155" y="2060" width="50" height="30" as="geometry" />
        </mxCell>
      </root>
    </mxGraphModel>
  </diagram>
  <diagram id="o3DnOCshE_PbGEsbcf7c" name="Arquitetura">
    <mxGraphModel dx="872" dy="431" grid="1" gridSize="10" guides="1" tooltips="1" connect="1" arrows="1" fold="1" page="1" pageScale="1" pageWidth="827" pageHeight="1169" math="0" shadow="0">
      <root>
        <mxCell id="0" />
        <mxCell id="1" parent="0" />
        <mxCell id="ZZmO2xCl3GnJogxi0lzs-1" value="Actor" style="shape=umlActor;verticalLabelPosition=bottom;verticalAlign=top;html=1;outlineConnect=0;" vertex="1" parent="1">
          <mxGeometry x="70" y="210" width="30" height="60" as="geometry" />
        </mxCell>
        <mxCell id="ZZmO2xCl3GnJogxi0lzs-6" style="edgeStyle=orthogonalEdgeStyle;rounded=0;orthogonalLoop=1;jettySize=auto;html=1;entryX=0;entryY=0.5;entryDx=0;entryDy=0;" edge="1" parent="1" source="ZZmO2xCl3GnJogxi0lzs-2" target="ZZmO2xCl3GnJogxi0lzs-4">
          <mxGeometry relative="1" as="geometry" />
        </mxCell>
        <mxCell id="ZZmO2xCl3GnJogxi0lzs-2" value="" style="shape=image;html=1;verticalAlign=top;verticalLabelPosition=bottom;labelBackgroundColor=#ffffff;imageAspect=0;aspect=fixed;image=https://cdn1.iconfinder.com/data/icons/unicons-line-vol-6/24/telegram-128.png" vertex="1" parent="1">
          <mxGeometry x="180" y="210" width="78" height="78" as="geometry" />
        </mxCell>
        <mxCell id="ZZmO2xCl3GnJogxi0lzs-3" style="edgeStyle=orthogonalEdgeStyle;rounded=0;orthogonalLoop=1;jettySize=auto;html=1;entryX=0;entryY=0.385;entryDx=0;entryDy=0;entryPerimeter=0;" edge="1" parent="1" source="ZZmO2xCl3GnJogxi0lzs-1" target="ZZmO2xCl3GnJogxi0lzs-2">
          <mxGeometry relative="1" as="geometry" />
        </mxCell>
        <mxCell id="ZZmO2xCl3GnJogxi0lzs-4" value="" style="image;html=1;image=img/lib/clip_art/computers/Server_Rack_128x128.png" vertex="1" parent="1">
          <mxGeometry x="350" y="70" width="80" height="80" as="geometry" />
        </mxCell>
        <mxCell id="ZZmO2xCl3GnJogxi0lzs-5" value="Servidor Telegram" style="text;html=1;align=center;verticalAlign=middle;resizable=0;points=[];autosize=1;strokeColor=none;fillColor=none;" vertex="1" parent="1">
          <mxGeometry x="330" y="160" width="120" height="30" as="geometry" />
        </mxCell>
        <mxCell id="ZZmO2xCl3GnJogxi0lzs-8" value="" style="image;sketch=0;aspect=fixed;html=1;points=[];align=center;fontSize=12;image=img/lib/mscae/Managed_Desktop.svg;" vertex="1" parent="1">
          <mxGeometry x="560" y="216.6" width="90" height="64.8" as="geometry" />
        </mxCell>
        <mxCell id="ZZmO2xCl3GnJogxi0lzs-9" style="edgeStyle=orthogonalEdgeStyle;rounded=0;orthogonalLoop=1;jettySize=auto;html=1;entryX=0.433;entryY=0.006;entryDx=0;entryDy=0;entryPerimeter=0;" edge="1" parent="1" source="ZZmO2xCl3GnJogxi0lzs-4" target="ZZmO2xCl3GnJogxi0lzs-8">
          <mxGeometry relative="1" as="geometry" />
        </mxCell>
        <mxCell id="ZZmO2xCl3GnJogxi0lzs-10" value="Bot rodando no PC" style="text;html=1;align=center;verticalAlign=middle;resizable=0;points=[];autosize=1;strokeColor=none;fillColor=none;" vertex="1" parent="1">
          <mxGeometry x="540" y="281.4" width="130" height="30" as="geometry" />
        </mxCell>
      </root>
    </mxGraphModel>
  </diagram>
  <diagram id="ulB0ELKLgxvCNudsJRvJ" name="modulo comando">
    <mxGraphModel dx="806" dy="481" grid="1" gridSize="10" guides="1" tooltips="1" connect="1" arrows="1" fold="1" page="1" pageScale="1" pageWidth="827" pageHeight="1169" math="0" shadow="0">
      <root>
        <mxCell id="0" />
        <mxCell id="1" parent="0" />
        <mxCell id="NM2iu7JxaBqSUkC_RN-K-3" style="edgeStyle=orthogonalEdgeStyle;rounded=0;orthogonalLoop=1;jettySize=auto;html=1;" edge="1" parent="1" source="NM2iu7JxaBqSUkC_RN-K-1" target="NM2iu7JxaBqSUkC_RN-K-2">
          <mxGeometry relative="1" as="geometry" />
        </mxCell>
        <mxCell id="NM2iu7JxaBqSUkC_RN-K-1" value="" style="strokeWidth=2;html=1;shape=mxgraph.flowchart.start_1;whiteSpace=wrap;" vertex="1" parent="1">
          <mxGeometry x="290" y="30" width="80" height="50" as="geometry" />
        </mxCell>
        <mxCell id="NM2iu7JxaBqSUkC_RN-K-5" style="edgeStyle=orthogonalEdgeStyle;rounded=0;orthogonalLoop=1;jettySize=auto;html=1;" edge="1" parent="1" source="NM2iu7JxaBqSUkC_RN-K-2" target="NM2iu7JxaBqSUkC_RN-K-4">
          <mxGeometry relative="1" as="geometry" />
        </mxCell>
        <mxCell id="NM2iu7JxaBqSUkC_RN-K-2" value="Para cada posição do vetor de comandos" style="strokeWidth=2;html=1;shape=mxgraph.flowchart.sequential_data;whiteSpace=wrap;" vertex="1" parent="1">
          <mxGeometry x="285" y="150" width="85" height="80" as="geometry" />
        </mxCell>
        <mxCell id="NM2iu7JxaBqSUkC_RN-K-10" style="edgeStyle=orthogonalEdgeStyle;rounded=0;orthogonalLoop=1;jettySize=auto;html=1;entryX=0.5;entryY=0;entryDx=0;entryDy=0;" edge="1" parent="1" source="NM2iu7JxaBqSUkC_RN-K-4" target="NM2iu7JxaBqSUkC_RN-K-9">
          <mxGeometry relative="1" as="geometry" />
        </mxCell>
        <mxCell id="NM2iu7JxaBqSUkC_RN-K-4" value="realiza o comando principal" style="rounded=1;whiteSpace=wrap;html=1;absoluteArcSize=1;arcSize=14;strokeWidth=2;" vertex="1" parent="1">
          <mxGeometry x="275" y="300" width="110" height="70" as="geometry" />
        </mxCell>
        <mxCell id="NM2iu7JxaBqSUkC_RN-K-19" value="" style="edgeStyle=orthogonalEdgeStyle;rounded=0;orthogonalLoop=1;jettySize=auto;html=1;" edge="1" parent="1" source="NM2iu7JxaBqSUkC_RN-K-6" target="NM2iu7JxaBqSUkC_RN-K-18">
          <mxGeometry relative="1" as="geometry" />
        </mxCell>
        <mxCell id="NM2iu7JxaBqSUkC_RN-K-6" value="Para cada posição do vetor interações" style="strokeWidth=2;html=1;shape=mxgraph.flowchart.sequential_data;whiteSpace=wrap;" vertex="1" parent="1">
          <mxGeometry x="460" y="410" width="102.5" height="100" as="geometry" />
        </mxCell>
        <mxCell id="NM2iu7JxaBqSUkC_RN-K-8" value="Vetor de comandos = [&lt;div&gt;{&lt;/div&gt;&lt;div&gt;comando:&quot;sudo apt update&quot;,&lt;/div&gt;&lt;div&gt;interacoes: [&quot;senha&quot;]&lt;/div&gt;&lt;div&gt;},&lt;/div&gt;&lt;div&gt;]&lt;/div&gt;" style="shape=note;size=20;whiteSpace=wrap;html=1;" vertex="1" parent="1">
          <mxGeometry x="520" y="90" width="190" height="120" as="geometry" />
        </mxCell>
        <mxCell id="NM2iu7JxaBqSUkC_RN-K-13" style="edgeStyle=orthogonalEdgeStyle;rounded=0;orthogonalLoop=1;jettySize=auto;html=1;" edge="1" parent="1" source="NM2iu7JxaBqSUkC_RN-K-9" target="NM2iu7JxaBqSUkC_RN-K-6">
          <mxGeometry relative="1" as="geometry" />
        </mxCell>
        <mxCell id="NM2iu7JxaBqSUkC_RN-K-15" style="edgeStyle=orthogonalEdgeStyle;rounded=0;orthogonalLoop=1;jettySize=auto;html=1;entryX=1;entryY=0.5;entryDx=0;entryDy=0;" edge="1" parent="1" source="NM2iu7JxaBqSUkC_RN-K-9" target="NM2iu7JxaBqSUkC_RN-K-14">
          <mxGeometry relative="1" as="geometry" />
        </mxCell>
        <mxCell id="NM2iu7JxaBqSUkC_RN-K-9" value="Deu erro" style="rhombus;whiteSpace=wrap;html=1;" vertex="1" parent="1">
          <mxGeometry x="290" y="420" width="80" height="80" as="geometry" />
        </mxCell>
        <mxCell id="NM2iu7JxaBqSUkC_RN-K-28" style="edgeStyle=orthogonalEdgeStyle;rounded=0;orthogonalLoop=1;jettySize=auto;html=1;" edge="1" parent="1" source="NM2iu7JxaBqSUkC_RN-K-14" target="NM2iu7JxaBqSUkC_RN-K-27">
          <mxGeometry relative="1" as="geometry" />
        </mxCell>
        <mxCell id="NM2iu7JxaBqSUkC_RN-K-14" value="Retorna Erro" style="rounded=1;whiteSpace=wrap;html=1;absoluteArcSize=1;arcSize=14;strokeWidth=2;" vertex="1" parent="1">
          <mxGeometry x="120" y="425" width="110" height="70" as="geometry" />
        </mxCell>
        <mxCell id="NM2iu7JxaBqSUkC_RN-K-16" value="SIM" style="text;html=1;align=center;verticalAlign=middle;resizable=0;points=[];autosize=1;strokeColor=none;fillColor=none;" vertex="1" parent="1">
          <mxGeometry x="240" y="428" width="40" height="30" as="geometry" />
        </mxCell>
        <mxCell id="NM2iu7JxaBqSUkC_RN-K-17" value="NÂO" style="text;html=1;align=center;verticalAlign=middle;resizable=0;points=[];autosize=1;strokeColor=none;fillColor=none;" vertex="1" parent="1">
          <mxGeometry x="385" y="428" width="50" height="30" as="geometry" />
        </mxCell>
        <mxCell id="NM2iu7JxaBqSUkC_RN-K-21" style="edgeStyle=orthogonalEdgeStyle;rounded=0;orthogonalLoop=1;jettySize=auto;html=1;entryX=0.5;entryY=0;entryDx=0;entryDy=0;" edge="1" parent="1" source="NM2iu7JxaBqSUkC_RN-K-18" target="NM2iu7JxaBqSUkC_RN-K-20">
          <mxGeometry relative="1" as="geometry" />
        </mxCell>
        <mxCell id="NM2iu7JxaBqSUkC_RN-K-18" value="Realiza o comando" style="whiteSpace=wrap;html=1;strokeWidth=2;" vertex="1" parent="1">
          <mxGeometry x="451.25" y="585" width="120" height="60" as="geometry" />
        </mxCell>
        <mxCell id="NM2iu7JxaBqSUkC_RN-K-22" style="edgeStyle=orthogonalEdgeStyle;rounded=0;orthogonalLoop=1;jettySize=auto;html=1;entryX=0.5;entryY=1;entryDx=0;entryDy=0;" edge="1" parent="1" source="NM2iu7JxaBqSUkC_RN-K-20" target="NM2iu7JxaBqSUkC_RN-K-14">
          <mxGeometry relative="1" as="geometry" />
        </mxCell>
        <mxCell id="NM2iu7JxaBqSUkC_RN-K-20" value="Deu erro" style="rhombus;whiteSpace=wrap;html=1;" vertex="1" parent="1">
          <mxGeometry x="471.25" y="700" width="80" height="80" as="geometry" />
        </mxCell>
        <mxCell id="NM2iu7JxaBqSUkC_RN-K-23" value="SIM&lt;div&gt;&lt;br&gt;&lt;/div&gt;" style="text;html=1;align=center;verticalAlign=middle;resizable=0;points=[];autosize=1;strokeColor=none;fillColor=none;" vertex="1" parent="1">
          <mxGeometry x="400" y="710" width="40" height="40" as="geometry" />
        </mxCell>
        <mxCell id="NM2iu7JxaBqSUkC_RN-K-24" style="edgeStyle=orthogonalEdgeStyle;rounded=0;orthogonalLoop=1;jettySize=auto;html=1;entryX=0.985;entryY=0.4;entryDx=0;entryDy=0;entryPerimeter=0;" edge="1" parent="1" source="NM2iu7JxaBqSUkC_RN-K-20" target="NM2iu7JxaBqSUkC_RN-K-6">
          <mxGeometry relative="1" as="geometry">
            <Array as="points">
              <mxPoint x="620" y="740" />
              <mxPoint x="620" y="450" />
            </Array>
          </mxGeometry>
        </mxCell>
        <mxCell id="NM2iu7JxaBqSUkC_RN-K-25" value="NÂO" style="text;html=1;align=center;verticalAlign=middle;resizable=0;points=[];autosize=1;strokeColor=none;fillColor=none;" vertex="1" parent="1">
          <mxGeometry x="555" y="708" width="50" height="30" as="geometry" />
        </mxCell>
        <mxCell id="NM2iu7JxaBqSUkC_RN-K-26" style="edgeStyle=orthogonalEdgeStyle;rounded=0;orthogonalLoop=1;jettySize=auto;html=1;entryX=0.953;entryY=0.338;entryDx=0;entryDy=0;entryPerimeter=0;" edge="1" parent="1" source="NM2iu7JxaBqSUkC_RN-K-6" target="NM2iu7JxaBqSUkC_RN-K-2">
          <mxGeometry relative="1" as="geometry">
            <Array as="points">
              <mxPoint x="500" y="177" />
            </Array>
          </mxGeometry>
        </mxCell>
        <mxCell id="NM2iu7JxaBqSUkC_RN-K-27" value="" style="strokeWidth=2;html=1;shape=mxgraph.flowchart.terminator;whiteSpace=wrap;" vertex="1" parent="1">
          <mxGeometry x="125" y="290" width="100" height="60" as="geometry" />
        </mxCell>
        <mxCell id="NM2iu7JxaBqSUkC_RN-K-29" style="edgeStyle=orthogonalEdgeStyle;rounded=0;orthogonalLoop=1;jettySize=auto;html=1;entryX=0.5;entryY=0;entryDx=0;entryDy=0;entryPerimeter=0;" edge="1" parent="1" source="NM2iu7JxaBqSUkC_RN-K-2" target="NM2iu7JxaBqSUkC_RN-K-27">
          <mxGeometry relative="1" as="geometry" />
        </mxCell>
      </root>
    </mxGraphModel>
  </diagram>
</mxfile>
